# xmcd
# 
# Track frame offsets:
#     150
#     21801
#     43669
#     62253
#     73431
#     89014
#     99507
#     115953
#     133238
#     178943
#     193720
#     210292
#     230144
# 
# Disc length: 3211
# 
# Revision: 1
# Processed by: cddbd v1.5.2PL0 Copyright (c) Steve Scherf et al.
# Submitted via: fre:ac v1.0.17
# 
DISCID=c20c890d
DTITLE=Micky Moody - I Eat Them For Breakfast
DYEAR=0
DGENRE=Blues
TTITLE0=On Common Ground
TTITLE1=Alimony
TTITLE2=Delta Bluesman
TTITLE3=Mixed-Up Blues
TTITLE4=My Lady Friend
TTITLE5=14-String Rag
TTITLE6=Me And My Guitar
TTITLE7=Just Leave Me Alone
TTITLE8=Turning Point (Parts 1-5)
TTITLE9=Obsession
TTITLE10=Let This Boy Boogie
TTITLE11=My Word For Trouble (W.O.M.A.N.)
TTITLE12=Journey Home
EXTD=
EXTT0=
EXTT1=
EXTT2=
EXTT3=
EXTT4=
EXTT5=
EXTT6=
EXTT7=
EXTT8=
EXTT9=
EXTT10=
EXTT11=
EXTT12=
PLAYORDER=
